<svg xmlns="http://www.w3.org/2000/svg" xmlns:xlink="http://www.w3.org/1999/xlink" width="1980.138" height="703.274" viewBox="0 0 1980.138 703.274">
  <defs>
    <linearGradient id="linear-gradient" x1="0.5" x2="0.5" y2="1" gradientUnits="objectBoundingBox">
      <stop offset="0" stop-color="#66b9d5"/>
      <stop offset="1" stop-color="#3d7083"/>
    </linearGradient>
  </defs>
  <path id="Path_24" data-name="Path 24" d="M2228.8,762.05c44.159-25.036,106.18-56.289,176.637-75.857s108.776-25.324,169.344,0,96.415,141.585,153.275,177.269S2860.315,904.9,2876.384,904.9s81.582,1.151,117.429-23.022,82.818-112.807,100.123-130.074,64.277-102.448,169.344-117.412,122.373-1.151,236.093,13.813,194.067-40.288,222.5-75.972,82.942-177.384,129.914-199.255,180.222-35.339,234.61,16.461-33.251,203.514-40.668,218.478-59.332,103.6-92.707,143.887-48.208,124.318-35.847,153.1,28.43,74.821,90.235,90.937,94.592-15.971,140.05-64.692,41.78-130.189,41.78-130.189v255.889H2228.8V786.338S2184.637,787.086,2228.8,762.05Z" transform="translate(-2209.17 -353.572)" fill="url(#linear-gradient)"/>
</svg>
