<svg viewBox="0 0 248 156"><defs><style>.design-2{fill:#ffeab8}.design-3{fill:#b1c8d0}.design-5{fill:#96b5c0}.design-6{fill:#a9c2cb}.design-7{fill:#ebc99b}.design-9{fill:#e7c18d}.design-11{fill:#729dab}.design-16{stroke:#3d7183;stroke-miterlimit:10;stroke-width:2px}.design-14{fill:#c4d6dc}.design-15{fill:#b8cdd4}.design-16{fill:none}</style></defs><g style="isolation: isolate;"><g id="design__layer_5" data-name="Layer 5"><ellipse class="design-2" cx="37.51" cy="118.44" rx="12.86" ry="11.45"></ellipse><path class="design-2" d="M199.88 99.42c-.57 0-1.12 0-1.68.06h-11.64c-6.95 0-12.58-4.75-12.58-10.62s5.63-10.62 12.58-10.62h2.7c13.93 0 25.21-9.53 25.21-21.29s-11.28-21.29-25.21-21.29l-13.62.14c-2.79 0-5-1.9-5-4.25s2.25-4.25 5-4.25h4.2c2.9 0 5.25-1.86 5.25-4.31s-2.35-4.43-5.25-4.43h-75.55c-2.9 0-5.25 2-5.25 4.43s2.26 4.17 5.15 4.17h9.45c2.78 0 5 1.9 5 4.25s-2.25 4.25-5 4.25H62.71c-13.92 0-25.2 9.53-25.2 21.29s11.28 21.29 25.2 21.29H63l15 .26c5.63 1 9.86 5.29 9.86 10.36S83.63 98.18 78 99.23c-12.91 0-23.38 9.09-23.38 20S65.09 139 78 139h121.88v-.06c12.91 0 23.37-8.84 23.37-19.74s-10.46-19.78-23.37-19.78z"></path><ellipse class="design-2" cx="197.04" cy="20.01" rx="4.98" ry="4.43"></ellipse><path class="design-3" d="M170.47 122.25a1.5 1.5 0 000-3 1.5 1.5 0 000 3z"></path></g><g><path fill="#6493a3" stroke="#3d7183" stroke-miterlimit="10" stroke-width="2" d="M55.44 36.57v18.86h-8.79l-3.96-4.71L38.74 46l3.95-4.71 3.96-4.72h8.79z"></path><path fill="#0082cb" d="M42.69 50.72l3.96 4.71h-.01l-3.95-4.71zM46.65 36.57l-3.96 4.72 3.95-4.72h.01z"></path><path fill="#222" d="M46.65 55.43h-.01l-3.95-4.71 3.96 4.71z"></path><path fill="#6493a3" stroke="#3d7183" stroke-miterlimit="10" stroke-width="2" d="M1 1v90h54.44L44.18 79.75l-7.61-7.62H19.88v-16.7L10.43 46l9.45-9.43V19.85h16.69L55.44 1H1z"></path><path fill="#3d7183" stroke="#3d7183" stroke-miterlimit="10" stroke-width="2" d="M55.44 1L36.57 19.85 25.82 30.61l-5.94 5.96L10.43 46l9.45 9.43 5.94 5.96 10.75 10.74 7.61 7.62L55.44 91h20.99L60.61 72.13l-3.98-4.8v-.02l-9.98-11.88h-.01l-3.95-4.71L38.72 46l3.97-4.71 3.95-4.72h.01l13.98-16.72L76.43 1H55.44z"></path></g><g id="design-pencil-container"><g id="design-pencil" data-name="Layer 7"><path class="design-5" d="M76.21 29.53a16.25 16.25 0 003.32 2.21l7.1-5.94a1.7 1.7 0 00.31-2.38l-4.87-5.82a3.86 3.86 0 00-2.83-1.38 4.68 4.68 0 00-3.16 1.08l-3.7 3.09-1.21 1a13.22 13.22 0 00.68 2.17 15.76 15.76 0 004.36 5.97z"></path><path class="design-3" d="M69.09 24.61a4.55 4.55 0 00.22 1.39 13.81 13.81 0 004.76 6.48 14.25 14.25 0 002.83 1.48l2.63-2.19a16.25 16.25 0 01-3.32-2.21 15.76 15.76 0 01-4.36-6 13.22 13.22 0 01-.68-2.17l-1.73 1.45a4.83 4.83 0 00-.35 1.77z"></path><path class="design-6" d="M74.07 32.45A13.81 13.81 0 0169.31 26a4.55 4.55 0 01-.22-1.36 4.83 4.83 0 01.35-1.76l-.74.61a4.25 4.25 0 00-.77 6l4.86 5.82a1.71 1.71 0 002.4.12L76.9 34a14.25 14.25 0 01-2.83-1.55z"></path><path class="design-7" d="M157.25 117.14l-4.95-1.11.21 5.07 16.03 14.37-11.29-18.33z"></path><path fill="#efd2ac" d="M152.51 121.1l-4.95-1.11 20.98 15.48-16.03-14.37z"></path><path class="design-7" d="M147.56 119.99l.31 5.08 20.67 10.4-20.98-15.48z"></path><path class="design-9" d="M157.04 112.07l.21 5.07 11.29 18.33-11.5-23.4z"></path><path class="design-9" d="M162.03 113.24l-4.99-1.17 11.5 23.4-6.51-22.23z"></path><path fill="#54889a" d="M161.9 113.3l-4.99-1.17-64.66-77.4 2.36-1.97 67.29 80.54z"></path><path class="design-11" d="M156.91 112.13l.21 5.07-4.95-1.11-64.66-77.4 4.74-3.96 64.66 77.4z"></path><path d="M152.17 116.09l.21 5.07-4.94-1.16-64.67-77.35 4.74-4z" fill="#8baeba"></path><path class="design-11" d="M147.44 120.05l.31 5.08-67.3-80.54 2.32-1.94 64.67 77.4z"></path><path d="M165.83 126.39a4.06 4.06 0 00-1.86.35 6.33 6.33 0 00-1.64.91 5.09 5.09 0 00-1.25 1.26 5 5 0 00-.83 2.47l8.25 4.13z" stroke="#3d7183" stroke-miterlimit="10" stroke-width="2" fill="#437c90"></path><path class="design-5" d="M90.29 27.46L89 25.93a1.71 1.71 0 00-2.4-.12l-7 5.85 3 4.31 7.4-6.13a1.69 1.69 0 00.29-2.38z"></path><path class="design-5" d="M79.38 33.23a3.16 3.16 0 001.68 2.29 3.62 3.62 0 001.58.45l-3-4.31a3.19 3.19 0 00-.26 1.57z"></path><path class="design-6" d="M77.61 36.62a3.35 3.35 0 01-.61-1.69 3.69 3.69 0 010-1l-1.83 1.53a1.85 1.85 0 00-.65 1.17 1.53 1.53 0 00.34 1.21l1.27 1.53a1.71 1.71 0 002.4.12L80.24 38a4.14 4.14 0 01-1.13-.29 3.47 3.47 0 01-1.5-1.09z"></path><path class="design-3" d="M81.06 35.52a3.16 3.16 0 01-1.68-2.29 3.19 3.19 0 01.23-1.57l-2.33 1.95-.33.28L80.24 38l2.4-2a3.62 3.62 0 01-1.58-.48z"></path><path class="design-3" d="M77 34.93a3.35 3.35 0 00.64 1.69 3.47 3.47 0 001.5 1.07 4.14 4.14 0 001.13.29L77 33.89a3.69 3.69 0 000 1.04z"></path><path class="design-5" d="M93.59 31.53L92.32 30a1.71 1.71 0 00-2.4-.12l-7 5.85 3 4.31 7.33-6.13a1.71 1.71 0 00.34-2.38z"></path><path class="design-5" d="M82.68 37.3a3.16 3.16 0 001.68 2.3 4 4 0 001.59.45l-3-4.31a3.16 3.16 0 00-.27 1.56z"></path><path class="design-6" d="M80.92 40.7a3.37 3.37 0 01-.65-1.7 4 4 0 010-1l-1.85 1.5a1.87 1.87 0 00-.65 1.16 1.55 1.55 0 00.34 1.22l1.27 1.52a1.69 1.69 0 002.4.12l1.76-1.47a3.62 3.62 0 01-1.12-.28 3.41 3.41 0 01-1.5-1.07z"></path><path class="design-3" d="M84.36 39.6a2.92 2.92 0 01-1.44-3.86l-2.34 1.95-.33.28 3.29 4.08 2.41-2a4 4 0 01-1.59-.45zM80.27 39a3.37 3.37 0 00.65 1.7 3.41 3.41 0 001.5 1.07 3.62 3.62 0 001.12.28L80.25 38a4 4 0 00.02 1z"></path><ellipse class="design-14" cx="79.58" cy="34.53" rx="1.05" ry="0.97" transform="rotate(-39.88 79.583 34.533)"></ellipse><ellipse class="design-14" cx="82.94" cy="38.55" rx="1.05" ry="0.97" transform="rotate(-39.88 82.928 38.554)"></ellipse><ellipse class="design-15" cx="87.89" cy="44.48" rx="1.05" ry="0.97" transform="rotate(-39.88 87.888 44.486)"></ellipse><rect class="design-15" x="90.7" y="45.22" width="2.11" height="7.77" rx="1.05" transform="rotate(-39.88 91.75 49.1)"></rect><path class="design-16" d="M87.64 38.63l-5.75 4.81a1.69 1.69 0 00-.31 2.38c22.73 27.2 66.27 79.23 66.29 79.25 4.16 2.08 8.27 4.2 12.42 6.28l8.25 4.12-2.67-9.12-3.87-13.11L95.79 34a1.7 1.7 0 00-2.4-.12z"></path><path class="design-16" d="M162.03 113.24l-4.99-1.17.21 5.07-4.95-1.11.21 5.07-4.95-1.11.31 5.08M157.04 112.07L92.37 34.68M152.3 116.03l-64.66-77.4M147.56 119.99L82.9 42.59"></path><rect class="design-16" x="73.33" y="29.97" width="18.51" height="5.25" rx="2" transform="rotate(-39.88 82.58 32.594)"></rect><rect class="design-16" x="76.7" y="34" width="18.51" height="5.25" rx="2" transform="rotate(-39.88 85.952 36.625)"></rect><path class="design-16" d="M72.55 35l-4-4.82a5 5 0 01.63-7l6.47-5.4a5 5 0 017 .63l4 4.83a2 2 0 01-.2 2.76l-11.08 9.21a2 2 0 01-2.82-.21z"></path><ellipse class="design-14" cx="71.6" cy="24.98" rx="1.05" ry="0.97" transform="rotate(-39.88 71.602 24.978)"></ellipse><rect class="design-14" x="73.67" y="25.38" width="2.11" height="6.68" rx="1.05" transform="rotate(-39.88 74.722 28.715)"></rect></g></g></g></svg>