<svg xmlns="http://www.w3.org/2000/svg" viewBox="0 0 603.3 90"><defs><style>.a{fill:#0082cb;}.b{fill:#222;}.c{fill:none;}</style></defs><title>logo</title><polygon class="a" points="43.18 78.75 54.44 90 0 90 0 0 54.44 0 35.57 18.85 18.88 18.85 18.88 35.57 9.43 45 18.88 54.43 18.88 71.13 35.57 71.13 43.18 78.75"/><polygon class="a" points="54.44 35.57 54.44 54.43 45.65 54.43 41.69 49.72 37.74 45 41.69 40.29 45.65 35.57 54.44 35.57"/><polygon class="a" points="41.69 49.72 45.65 54.43 45.64 54.43 41.69 49.72"/><polygon class="a" points="45.65 35.57 41.69 40.29 45.64 35.57 45.65 35.57"/><polygon class="b" points="45.65 54.43 45.64 54.43 41.69 49.72 45.65 54.43"/><polygon class="b" points="59.61 71.13 75.43 90 54.44 90 43.18 78.75 35.57 71.13 24.82 60.39 18.88 54.43 9.43 45 18.88 35.57 24.82 29.61 35.57 18.85 54.44 0 75.43 0 59.63 18.85 45.65 35.57 45.64 35.57 41.69 40.29 37.72 45 41.69 49.72 45.64 54.43 45.65 54.43 55.63 66.31 55.63 66.33 59.61 71.13"/><polygon class="b" points="45.65 35.57 41.69 40.29 45.64 35.57 45.65 35.57"/><line class="c" x1="55.63" y1="66.33" x2="55.61" y2="66.33"/><path d="M289.3,301.21V216h57.61v9.84H302.39v25.84h37.74v9.84H302.39v29.9H350v9.83Z" transform="translate(-201.88 -214)"/><path d="M361.43,301.21V216h13.09v41.8L410.21,216h13.21L389,256.16l41,45H414.28l-39.76-43.45v43.45Z" transform="translate(-201.88 -214)"/><path d="M437.07,301.21V216h13.09v75.42h45.91v9.83Z" transform="translate(-201.88 -214)"/><path d="M505.86,301.21V216h57.6v9.84H519v25.84h37.73v9.84H519v29.9h47.57v9.83Z" transform="translate(-201.88 -214)"/><path d="M602.11,301.21l-1-75.41H569.35V216H648v9.84H614.19l1,75.41Z" transform="translate(-201.88 -214)"/><path d="M654.17,301.21V216h13.09v41.8L703,216h13.21l-34.42,40.2,41,45H707l-39.75-43.45v43.45Z" transform="translate(-201.88 -214)"/><path d="M724.85,301.21,758.47,216h13.09l33.62,85.25H791.33l-8.05-21.33h-39l-8.18,21.33Zm23.39-31.16h31.12l-15.64-40.73Z" transform="translate(-201.88 -214)"/></svg>