<svg xmlns="http://www.w3.org/2000/svg" width="1693.37" height="6395.63" viewBox="0 0 1693.37 6395.63">
  <defs>
    <style>
      .cls-1 {
        fill: none;
        stroke: #000;
        stroke-width: 0.75px;
      }
    </style>
  </defs>
  <path id="Path_42" data-name="Path 42" class="cls-1" d="M4704.471-6.905c104.933,133.244,159.08,193.478,243.114,246.188s217.631-44.652,397.773-36.442,134.545,132.33,312.956,158.41S5977.863,352.075,6059,307.16s-29.093-147.3-76.139-125.569-127.018,126.052-112.046,212.5,106.25,69.546,171.933,133.3,148.75,95.625,90.8,121.7-269.49-56.023-322.615-17.386,169.518,131.847,110.114,171.932-215.4-24.631-347.729-11.591-174.831,37.671-181.592,63.75,121.705-14.006,154.546,40.568-23.182,177.728-23.182,177.728-28.088,80.171-49.271,158.113-49.979,179.168,49.271,264.037,285.55,141.449,347.729,75.439-12.632-241.771-144.7-206.112-201.05,173.444-179.847,292.868,213.935,92.413,264.66,184.826,62.125,231.033-61.759,184.826-246.121-277.239-433.776-369.652-237.634,65.066-316.845,0,58.465-219.717,0-260.266-175.4,22.631-233.862,98.071-63.18,70.725,0,203.687,131.076,273.467,252.722,328.161,145.221-132.019,233.862-109.387-3.771,107.5,120.7,199.914,252.486,34.549,377.2,169.738,63.223,175.921,121.646,371.021,211.3,328.58,112.046,409.378-399.9,35.012-509.045-86.186,3.614-358.205,72.453-398.6,260.62,191.222,202.9,237.008-233.38,59.252-433.776-53.865-230.132-371.672-367.809-398.6-219.2,115.811-182.9,290.874,372.649,266.635,328.086,409.378-455.164,37.706-506.336,161.6S4691.7,3532,4888.084,3564.319s291.332-185.836,483.889-204.689,133.619,115.811,286.341,129.277,172.365-142.743,324.547-75.411,265.146,212.769,284.181,344.739S6173.028,3941.378,6059,3941.378s-126.65-158.9-248.071-183.143-222.175-2.694-237.614,86.185,322.962,605.988,198.487,657.16-573.3-121.2-520.531-183.144,529.658-110.425,731.591-64.639S6074.455,4375,6059,4501.58s40.453,234.314-137.957,258.554-446.9-196.205-575.684-161.6,3.573,248.6,60.562,300.029,88.183-89.584,167.394-94.3,95.114,30.175,149.451,75.438,240.463,79.211,67.9,105.615-542.22,56.3-758.166,0-49.979-213.872-105.615-225.187S4796.5,4841.461,4796.5,4948.68s40.8,178.091,130.384,240.328,199.933,33,241.406,0-36.85-163.137-75.513-132.019-70.669,139.563-79.138,256.493,96.185,301.758,173.51,445.093,198.972,254.607,181.055,339.477-257.437,65.066-252.722,0S5560.5,5784.8,5570.805,5692.085s-73.825-180.271-138.481-167.372-36.777,229.147,67.9,354.565,508.1,259.322,482.642,309.3-294.043-63.181-373.255-45.264-60.351,93.357-177.282,154.651-290.442,27.346-290.442,90.526" transform="translate(-4576.181 7.137)"/>
</svg>
